<?xml version="1.0" encoding="UTF-8" standalone="no"?>
<svg
   height="24"
   viewBox="0 0 24 24"
   width="24"
   version="1.1"
   id="svg6"
   sodipodi:docname="navit.svg"
   inkscape:version="1.2.1 (9c6d41e410, 2022-07-14, custom)"
   xmlns:inkscape="http://www.inkscape.org/namespaces/inkscape"
   xmlns:sodipodi="http://sodipodi.sourceforge.net/DTD/sodipodi-0.dtd"
   xmlns="http://www.w3.org/2000/svg"
   xmlns:svg="http://www.w3.org/2000/svg">
  <defs
     id="defs10">
    <linearGradient
       id="linearGradient3728">
      <stop
         offset="0"
         stop-color="#ffda00"
         id="stop3730" />
      <stop
         offset="1"
         stop-color="#f57f0c"
         id="stop3732" />
    </linearGradient>
  </defs>
  <sodipodi:namedview
     id="namedview8"
     pagecolor="#ffffff"
     bordercolor="#666666"
     borderopacity="1.0"
     inkscape:showpageshadow="2"
     inkscape:pageopacity="0.0"
     inkscape:pagecheckerboard="0"
     inkscape:deskcolor="#d1d1d1"
     showgrid="false"
     inkscape:zoom="22.421178"
     inkscape:cx="16.16775"
     inkscape:cy="14.160719"
     inkscape:window-width="1920"
     inkscape:window-height="1006"
     inkscape:window-x="0"
     inkscape:window-y="0"
     inkscape:window-maximized="1"
     inkscape:current-layer="g534" />
  <g
     id="g691"
     transform="matrix(3.7795276,0,0,3.7795276,-46.841972,-1077.1039)">
    <g
       id="g534">
      <path
         style="display:inline;fill:#ffffff;fill-opacity:1;stroke:none;stroke-width:0.0049845;stroke-opacity:1"
         d="m 15.638318,290.6035 -2.79e-4,-0.72366 0.08164,-0.006 c 0.407389,-0.03 0.788447,-0.20493 1.078806,-0.49503 0.282598,-0.28233 0.453293,-0.63951 0.495341,-1.03652 0.004,-0.0378 0.0073,-0.0827 0.0073,-0.0998 l 5.6e-5,-0.0312 h 0.712904 c 0.392097,0 0.71197,9.1e-4 0.710829,0.002 -0.0011,0.001 -0.210469,0.0923 -0.465171,0.20264 -0.254704,0.11027 -0.465016,0.20239 -0.467359,0.20457 -0.0023,0.002 -0.01503,0.0463 -0.02818,0.098 -0.04063,0.15971 -0.0889,0.2917 -0.158484,0.43338 -0.05143,0.1047 -0.08433,0.16164 -0.152838,0.26437 -0.306401,0.45952 -0.76087,0.7815 -1.306286,0.92549 l -0.02174,0.006 -0.243141,0.48987 -0.243142,0.48987 -2.79e-4,-0.72366 z m -0.271662,0.28138 c -0.09859,-0.22811 -0.180111,-0.417 -0.181148,-0.41975 -0.0012,-0.003 0.0049,-0.003 0.0165,-10e-4 0.05244,0.009 0.170248,0.0231 0.253035,0.0285 l 0.09337,0.006 v 0.40079 c 0,0.22041 -5.6e-4,0.40074 -0.0013,0.40072 -6.84e-4,0 -0.08192,-0.18667 -0.180508,-0.41479 z m 0.121999,-0.47675 c -0.126438,-0.005 -0.301304,-0.0306 -0.435709,-0.0638 -0.362189,-0.0895 -0.688843,-0.2653 -0.975052,-0.52483 -0.190179,-0.17245 -0.368009,-0.40823 -0.485801,-0.64409 -0.145177,-0.2907 -0.216776,-0.5653 -0.237413,-0.91053 l -0.0032,-0.0537 h 0.266117 0.266116 l 0.0031,0.0625 c 0.0037,0.0743 0.01882,0.18247 0.03645,0.26185 0.140059,0.63056 0.619085,1.1268 1.245188,1.28993 0.100661,0.0262 0.276111,0.0523 0.352375,0.0523 h 0.02753 v 0.26693 0.26693 l -0.01122,-9.9e-4 c -0.0061,-5.4e-4 -0.02801,-0.001 -0.04855,-0.002 z m -2.616875,-1.97696 -0.438072,-0.21915 0.416279,-3.9e-4 0.416279,-3.8e-4 0.0034,0.0686 c 0.0054,0.10922 0.03146,0.31448 0.04592,0.36173 0.0015,0.005 7.81e-4,0.009 -0.0015,0.009 -0.0023,0 -0.201331,-0.0986 -0.442271,-0.21915 z m 0.05082,-0.55647 0.493874,-0.24608 0.0056,-0.0218 c 0.127233,-0.4938 0.421523,-0.93351 0.829152,-1.23882 0.16865,-0.12635 0.365635,-0.23392 0.565178,-0.30868 0.04584,-0.0172 0.174201,-0.0575 0.218418,-0.0686 l 0.02173,-0.006 0.245723,-0.49486 0.245723,-0.49486 1.99e-4,0.72894 2e-4,0.72892 -0.06598,0.003 c -0.300239,0.0147 -0.618507,0.12741 -0.875081,0.30972 -0.117549,0.0835 -0.260545,0.21792 -0.345502,0.32473 -0.159652,0.20073 -0.269022,0.42214 -0.329077,0.66618 -0.02618,0.10633 -0.04753,0.25563 -0.04753,0.33224 v 0.0319 l -0.728258,-3.2e-4 -0.728258,-3.1e-4 z m 4.378606,0.21666 c 0,-0.0166 -0.0035,-0.0631 -0.0076,-0.10331 -0.05115,-0.48803 -0.307925,-0.92819 -0.71009,-1.21722 -0.17371,-0.12484 -0.372423,-0.21638 -0.582688,-0.26839 -0.112245,-0.0278 -0.248521,-0.0475 -0.328385,-0.0475 h -0.03433 v -0.26748 -0.26749 l 0.06099,0.003 c 0.293407,0.0165 0.551745,0.0779 0.808701,0.19241 0.330494,0.14728 0.627084,0.37955 0.85196,0.66721 0.05256,0.0673 0.145066,0.20601 0.185399,0.27814 0.143183,0.25607 0.236702,0.54186 0.271036,0.82826 0.0059,0.0495 0.01773,0.20022 0.01787,0.22826 0,0.002 -0.119864,0.003 -0.266388,0.003 H 17.30124 Z m 0.613573,-0.0639 c -0.0065,-0.10075 -0.01983,-0.21107 -0.03584,-0.29491 -0.0054,-0.0286 -0.0094,-0.0524 -0.0088,-0.0529 6.49e-4,-4.4e-4 0.200611,0.0986 0.444358,0.22012 l 0.44318,0.22091 -0.418478,3.2e-4 -0.418476,3.3e-4 -0.006,-0.0939 z m -1.902373,-2.15391 c -0.09099,-0.0184 -0.261346,-0.0372 -0.338265,-0.0373 l -0.0361,-5e-5 v -0.41994 c 0,-0.23097 8.02e-4,-0.419 0.0017,-0.41787 0.0097,0.0116 0.439154,0.88756 0.434797,0.88714 -0.0032,-3.2e-4 -0.03121,-0.006 -0.06221,-0.012 z"
         id="path1363-0-6"
         inkscape:connector-curvature="0"
         sodipodi:nodetypes="cccccccscccccscccccccccccsccccccccccccccsccccccccccccscccccccccccccccccsccccccccscccccccccsccccccccccczccscccz"
         inkscape:export-xdpi="960"
         inkscape:export-ydpi="960" />
      <path
         style="display:inline;fill:#ffffff;fill-opacity:1;stroke:none;stroke-width:0.579231;stroke-miterlimit:4;stroke-dasharray:none;stroke-opacity:1"
         d="m 15.584648,286.57869 a 1.5308347,1.5338818 0 0 1 0.107037,0.006 1.5308347,1.5338818 0 0 0 -0.107037,-0.006 z m 0,0 a 1.5308347,1.5338818 0 0 0 -0.134547,0.007 1.5308347,1.5338818 0 0 1 0.134547,-0.007 z m -0.134547,0.007 a 1.5308347,1.5338818 0 0 0 -0.05561,0.007 1.5308347,1.5338818 0 0 1 0.05561,-0.007 z m -0.05561,0.007 a 1.5308347,1.5338818 0 0 0 -0.101657,0.0155 1.5308347,1.5338818 0 0 1 0.101657,-0.0155 z m -0.101657,0.0155 a 1.5308347,1.5338818 0 0 0 -0.03768,0.008 1.5308347,1.5338818 0 0 1 0.03768,-0.008 z m -0.03768,0.008 a 1.5308347,1.5338818 0 0 0 -0.116607,0.0299 1.5308347,1.5338818 0 0 1 0.116607,-0.0299 z m -0.116607,0.0299 a 1.5308347,1.5338818 0 0 0 -0.01018,0.003 v 6.1e-4 a 1.5308347,1.5338818 0 0 1 0.01018,-0.003 z m -0.01018,0.003 a 1.5308347,1.5338818 0 0 0 -0.683493,0.44039 v 2.04198 a 1.5308347,1.5338818 0 0 1 -0.268495,-0.42301 1.5308347,1.5338818 0 0 0 1.033314,0.88797 1.5308347,1.5338818 0 0 1 -0.13634,-0.042 v -1.02279 c 0,-0.17398 -0.01018,-0.35389 -0.03109,-0.53985 -0.01796,-0.18598 -0.03467,-0.3599 -0.04963,-0.52188 h 0.01794 l 0.287629,0.63931 0.761231,1.45839 a 1.5308347,1.5338818 0 0 0 0.679906,-0.45117 V 287.1068 A 1.5308347,1.5338818 0 0 0 16.11086,286.673 v 0.99941 c 0,0.17398 0.0089,0.35687 0.0269,0.54885 0.02096,0.19197 0.03885,0.36589 0.05382,0.52188 h -0.01794 l -0.287032,-0.64771 -0.758241,-1.4464 z m 1.610964,2.4674 a 1.5308347,1.5338818 0 0 0 0.09448,-0.12043 1.5308347,1.5338818 0 0 1 -0.09448,0.12043 z m 0.09448,-0.12043 a 1.5308347,1.5338818 0 0 0 0.07774,-0.12223 1.5308347,1.5338818 0 0 1 -0.07774,0.12223 z m -1.62412,0.60036 a 1.5308347,1.5338818 0 0 0 0.01914,0.005 1.5308347,1.5338818 0 0 1 -0.01914,-0.005 z m 0.01914,0.005 a 1.5308347,1.5338818 0 0 0 0.126174,0.0246 1.5308347,1.5338818 0 0 1 -0.126174,-0.0246 z m 0.126174,0.0246 a 1.5308347,1.5338818 0 0 0 0.02571,0.005 1.5308347,1.5338818 0 0 1 -0.02571,-0.005 z m 0.02571,0.005 a 1.5308347,1.5338818 0 0 0 0.107639,0.0104 1.5308347,1.5338818 0 0 1 -0.107639,-0.0104 z m 0.107639,0.0104 a 1.5308347,1.5338818 0 0 0 0.09628,0.005 1.5308347,1.5338818 0 0 1 -0.09628,-0.005 z m 0.09628,0.005 a 1.5308347,1.5338818 0 0 0 0.135145,-0.007 1.5308347,1.5338818 0 0 1 -0.135145,0.007 z m 0.135145,-0.007 a 1.5308347,1.5338818 0 0 0 0.05801,-0.007 1.5308347,1.5338818 0 0 1 -0.05801,0.007 z m 0.05801,-0.007 a 1.5308347,1.5338818 0 0 0 0.09747,-0.0155 1.5308347,1.5338818 0 0 1 -0.09747,0.0155 z m 0.09747,-0.0155 a 1.5308347,1.5338818 0 0 0 0.03768,-0.008 1.5308347,1.5338818 0 0 1 -0.03768,0.008 z m 0.03768,-0.008 a 1.5308347,1.5338818 0 0 0 0.123782,-0.0324 1.5308347,1.5338818 0 0 1 -0.123782,0.0324 z m -1.736541,-0.89876 a 1.5308347,1.5338818 0 0 1 -0.04425,-0.11924 1.5308347,1.5338818 0 0 0 0.04425,0.11924 z m -0.04425,-0.11924 a 1.5308347,1.5338818 0 0 1 -0.01255,-0.0384 1.5308347,1.5338818 0 0 0 0.01255,0.0384 z m -0.01255,-0.0384 a 1.5308347,1.5338818 0 0 1 -0.02631,-0.10366 1.5308347,1.5338818 0 0 0 0.02631,0.10366 z m -0.02631,-0.10366 a 1.5308347,1.5338818 0 0 1 -0.0096,-0.045 1.5308347,1.5338818 0 0 0 0.0096,0.045 z m -0.0096,-0.045 a 1.5308347,1.5338818 0 0 1 -0.01555,-0.0976 1.5308347,1.5338818 0 0 0 0.01555,0.0976 z m -0.01555,-0.0976 a 1.5308347,1.5338818 0 0 1 -0.0072,-0.0594 1.5308347,1.5338818 0 0 0 0.0072,0.0594 z m -0.0072,-0.0594 a 1.5308347,1.5338818 0 0 1 -0.0072,-0.13422 1.5308347,1.5338818 0 0 0 0.0072,0.13422 z m -0.0072,-0.13422 a 1.5308347,1.5338818 0 0 1 0.0042,-0.0845 1.5308347,1.5338818 0 0 0 -0.0042,0.0845 z m 0.0042,-0.0845 a 1.5308347,1.5338818 0 0 1 0.0078,-0.094 1.5308347,1.5338818 0 0 0 -0.0078,0.094 z m 0.0078,-0.094 a 1.5308347,1.5338818 0 0 1 0.009,-0.0611 1.5308347,1.5338818 0 0 0 -0.009,0.0611 z m 0.009,-0.0611 a 1.5308347,1.5338818 0 0 1 0.01674,-0.0923 1.5308347,1.5338818 0 0 0 -0.01674,0.0923 z m 0.01674,-0.0923 a 1.5308347,1.5338818 0 0 1 0.01435,-0.0564 1.5308347,1.5338818 0 0 0 -0.01435,0.0564 z m 0.01435,-0.0564 a 1.5308347,1.5338818 0 0 1 0.0269,-0.0935 1.5308347,1.5338818 0 0 0 -0.0269,0.0935 z m 0.0269,-0.0935 a 1.5308347,1.5338818 0 0 1 0.01435,-0.0395 1.5308347,1.5338818 0 0 0 -0.01435,0.0395 z m 0.01435,-0.0395 a 1.5308347,1.5338818 0 0 1 0.04365,-0.10899 1.5308347,1.5338818 0 0 0 -0.04365,0.10899 z m 0.04365,-0.10899 a 1.5308347,1.5338818 0 0 1 0.01255,-0.0257 1.5308347,1.5338818 0 0 0 -0.01255,0.0257 z m 0.01255,-0.0257 a 1.5308347,1.5338818 0 0 1 0.0592,-0.11328 1.5308347,1.5338818 0 0 0 -0.0592,0.11328 z m 1.488378,-0.8724 a 1.5308347,1.5338818 0 0 1 0.10345,0.0104 1.5308347,1.5338818 0 0 0 -0.10345,-0.0104 z m 0.10345,0.0104 a 1.5308347,1.5338818 0 0 1 0.03588,0.006 1.5308347,1.5338818 0 0 0 -0.03588,-0.006 z m 0.03588,0.006 a 1.5308347,1.5338818 0 0 1 0.124979,0.0263 1.5308347,1.5338818 0 0 0 -0.124979,-0.0263 z m 0.124979,0.0263 a 1.5308347,1.5338818 0 0 1 0.01735,0.005 1.5308347,1.5338818 0 0 0 -0.01735,-0.005 z m 0.01735,0.005 a 1.5308347,1.5338818 0 0 1 0.13036,0.0401 1.5308347,1.5338818 0 0 0 -0.13036,-0.0401 z m -1.530237,0.46136 a 1.5308347,1.5338818 0 0 0 -0.0909,0.11329 1.5308347,1.5338818 0 0 1 0.0909,-0.11329 z m 2.310604,0.0324 a 1.5308347,1.5338818 0 0 1 0.08969,0.11744 1.5308347,1.5338818 0 0 0 -0.08969,-0.11744 z m -2.406281,0.0869 a 1.5308347,1.5338818 0 0 0 -0.07655,0.11743 1.5308347,1.5338818 0 0 1 0.07655,-0.11743 z m 2.50136,0.0378 a 1.5308347,1.5338818 0 0 1 0.07355,0.12043 1.5308347,1.5338818 0 0 0 -0.07355,-0.12043 z m 0.07953,0.13123 a 1.5308347,1.5338818 0 0 1 0.06039,0.12462 1.5308347,1.5338818 0 0 0 -0.06039,-0.12462 z m 0.06698,0.1402 a 1.5308347,1.5338818 0 0 1 0.03947,0.10667 1.5308347,1.5338818 0 0 0 -0.03947,-0.10667 z m 0.03947,0.10667 a 1.5308347,1.5338818 0 0 1 0.01555,0.0467 1.5308347,1.5338818 0 0 0 -0.01555,-0.0467 z m 0.01555,0.0467 a 1.5308347,1.5338818 0 0 1 0.0269,0.10423 1.5308347,1.5338818 0 0 0 -0.0269,-0.10423 z m 0.0269,0.10423 a 1.5308347,1.5338818 0 0 1 0.009,0.0413 1.5308347,1.5338818 0 0 0 -0.009,-0.0413 z m 0.009,0.0413 a 1.5308347,1.5338818 0 0 1 0.01554,0.10192 1.5308347,1.5338818 0 0 0 -0.01554,-0.10192 z m 0.01554,0.10192 a 1.5308347,1.5338818 0 0 1 0.0066,0.0552 1.5308347,1.5338818 0 0 0 -0.0066,-0.0552 z m 0.0066,0.0552 a 1.5308347,1.5338818 0 0 1 0.0072,0.1354 1.5308347,1.5338818 0 0 0 -0.0072,-0.1354 z m 0.0072,0.1354 a 1.5308347,1.5338818 0 0 1 -0.0036,0.0797 1.5308347,1.5338818 0 0 0 0.0036,-0.0797 z m -0.0036,0.0797 a 1.5308347,1.5338818 0 0 1 -0.006,0.0899 1.5308347,1.5338818 0 0 0 0.006,-0.0899 z m -0.006,0.0899 a 1.5308347,1.5338818 0 0 1 -0.0083,0.0558 1.5308347,1.5338818 0 0 0 0.0083,-0.0558 z m -0.0083,0.0558 a 1.5308347,1.5338818 0 0 1 -0.01555,0.0911 1.5308347,1.5338818 0 0 0 0.01555,-0.0911 z m -0.01555,0.0911 a 1.5308347,1.5338818 0 0 1 -0.01435,0.0581 1.5308347,1.5338818 0 0 0 0.01435,-0.0581 z m -0.01435,0.0581 a 1.5308347,1.5338818 0 0 1 -0.0269,0.0976 1.5308347,1.5338818 0 0 0 0.0269,-0.0976 z m -0.03708,0.12523 a 1.5308347,1.5338818 0 0 1 -0.04246,0.11143 1.5308347,1.5338818 0 0 0 0.04246,-0.11143 z m -0.04246,0.11143 a 1.5308347,1.5338818 0 0 1 -0.01914,0.0401 1.5308347,1.5338818 0 0 0 0.01914,-0.0401 z m -0.01914,0.0401 a 1.5308347,1.5338818 0 0 1 -0.05203,0.10249 1.5308347,1.5338818 0 0 0 0.05203,-0.10249 z"
         id="circle1355-6-5-2"
         inkscape:connector-curvature="0" />
    </g>
  </g>
</svg>
